# AST/ASF file generated using VICON BodyLanguage
# -----------------------------------------------
:version 1.10
:name VICON
:units
  mass 1.0
  length 0.45
  angle deg
:documentation
   .ast/.asf automatically generated from VICON data using
   VICON BodyBuilder and BodyLanguage model FoxedUp or BRILLIANT.MOD
:root
   order TX TY TZ RX RY RZ
   axis XYZ
   position 0 0 0  
   orientation 0 0 0 
:bonedata
  begin
     id 1 
     name lhipjoint
     direction 0.612567 -0.751349 0.245431 
     length 2.42285 
     axis 0 0 0  XYZ
  end
  begin
     id 2 
     name lfemur
     direction 0.34202 -0.939693 0  
     length 7.11304  
     axis 0 0 20  XYZ
    dof rx ry rz
    limits (-160.0 20.0)
           (-70.0 70.0)
           (-60.0 70.0)
  end
  begin
     id 3 
     name ltibia
     direction 0.34202 -0.939693 0   
     length 7.84529   
     axis 0 0 20   XYZ
    dof rx
    limits (-10.0 170.0)
  end
  begin
     id 4 
     name lfoot
     direction 0.0779239 -0.214094 0.9737   
     length 1.97176   
     axis -90 7.62852e-016 20   XYZ
    dof rx rz
    limits (-45.0 90.0)
           (-70.0 20.0)
  end
  begin
     id 5 
     name ltoes
     direction 1.53565e-011 -4.21709e-011 1   
     length 0.993197   
     axis -90 7.62852e-016 20   XYZ
    dof rx
    limits (-90.0 20.0)
  end
  begin
     id 6 
     name rhipjoint
     direction -0.665722 -0.709315 0.231701   
     length 2.56642  
     axis 0 0 0  XYZ 
  end
  begin
     id 7 
     name rfemur
     direction -0.34202 -0.939693 0   
     length 7.32108   
     axis 0 0 -20   XYZ
    dof rx ry rz
    limits (-160.0 20.0)
           (-70.0 70.0)
           (-70.0 60.0)
  end
  begin
     id 8 
     name rtibia
     direction -0.34202 -0.939693 0   
     length 7.81254   
     axis 0 0 -20   XYZ
    dof rx
    limits (-10.0 170.0)
 end
 begin
     id 9 
     name rfoot
     direction -0.0832806 -0.228812 0.969902   
     length 2.08278  
     axis -90 -7.62852e-016 -20   XYZ
    dof rx rz
    limits (-45.0 90.0)
           (-20.0 70.0)
  end
  begin
     id 10 
     name rtoes
     direction -1.53589e-011 -4.22086e-011 1   
     length 1.04609   
     axis -90 -7.62852e-016 -20   XYZ
    dof rx
    limits (-90.0 20.0)
  end
  begin
     id 11 
     name lowerback
     direction -0.00506013 0.988403 -0.151766   
     length 2.01978   
     axis 0 0 0   XYZ
    dof rx ry rz
    limits (-20.0 45.0)
           (-30.0 30.0)
           (-30.0 30.0)
  end
  begin
     id 12 
     name upperback
     direction -0.00836389 0.99968 0.0238859   
     length 2.01276   
     axis 0 0 0   XYZ
    dof rx ry rz
    limits (-20.0 45.0)
           (-30.0 30.0)
           (-30.0 30.0)
  end
  begin
     id 13 
     name thorax
     direction -0.00684136 0.995386 0.0957043   
     length 2.07303   
     axis 0 0 0   XYZ
    dof rx ry rz
    limits (-20.0 45.0)
           (-30.0 30.0)
           (-30.0 30.0)
  end
  begin
     id 14 
     name lowerneck
     direction -0.0161045 0.999661 0.0204485   
     length 1.91243   
     axis 0 0 0   XYZ
    dof rx ry rz
    limits (-20.0 45.0)
           (-30.0 30.0)
           (-30.0 30.0)
  end
  begin
     id 15 
     name upperneck
     direction 0.0553583 0.990946 -0.122319   
     length 1.91574   
     axis 0 0 0   XYZ
    dof rx ry rz
    limits (-20.0 45.0)
           (-30.0 30.0)
           (-30.0 30.0)
  end
  begin
     id 16
     name head
     direction 0.0180273 0.998839 -0.0446756  
     length 1.92693  
     axis 0 0 0   XYZ
    dof rx ry rz
    limits (-20.0 45.0)
           (-30.0 30.0)
           (-30.0 30.0)
  end
  begin
     id 17 
     name lclavicle
     direction 0.945646 0.319323 -0.0615358  
     length 4.0076  
     axis 0 0 0   XYZ
    dof ry rz
    limits (-20.0 10.0)
           (0.0 20.0)
  end
  begin
     id 18 
     name lhumerus
     direction 1 -4.48967e-011 -2.79996e-027   
     length 5.64147   
     axis 180 -30 -90   XYZ
    dof rx ry rz
    limits (-60.0 90.0)
           (-90.0 90.0)
           (-90.0 90.0)
  end
  begin
     id 19
     name lradius
     direction 1 -4.48976e-011 -9.5122e-027   
     length 2.86444   
     axis 180 -30 -90   XYZ
    dof rx
    limits (-10.0 170.0)
  end
  begin
     id 20
     name lwrist
     direction 1 -4.48983e-011 -1.24047e-026   
     length 1.43222   
     axis 9.05591e-015 90 90   XYZ
    dof ry
    limits (-180.0 0.0)
 end
  begin
     id 21 
     name lhand
     direction 1 -4.4892e-011 -2.48094e-026   
     length 0.722123   
     axis 1.58305e-014 90 90   XYZ
    dof rx rz
    limits (-90.0 90.0)
           (-45.0 45.0)
  end
  begin
     id 22 
     name lfingers
     direction 1 -4.48895e-011 -4.96187e-026   
     length 0.582194   
     axis 3.1661e-014 90 90   XYZ
    dof rx
    limits (0.0 90.0)
  end
  begin
     id 23
     name lthumb
     direction 0.707107 -6.34961e-011 0.707107   
     length 0.835918   
     axis -90 45 2.85299e-015   XYZ
    dof rx rz
    limits (-45.0 45.0)
           (-45.0 45.0)
  end
  begin
     id 24 
     name rclavicle
     direction -0.932635 0.324218 -0.15835   
     length 3.65819  
     axis 0 0 0   XYZ 
    dof ry rz
    limits (-10.0 20.0)
           (-20.0 0.0)
  end
  begin
     id 25 
     name rhumerus
     direction -1 -4.48965e-011 -4.02296e-027  
     length 5.44729   
     axis 180 30 90   XYZ
    dof rx ry rz
    limits (-90.0 60.0)
           (-90.0 90.0)
           (-90.0 90.0)
  end
  begin
     id 26 
     name rradius
     direction -1 -4.48957e-011 -8.81087e-027   
     length 3.08821   
     axis 180 30 90   XYZ
    dof rx
    limits (-10.0 170.0)
  end
  begin
     id 27 
     name rwrist
     direction -1 -4.49015e-011 -1.24047e-026   
     length 1.5441   
     axis 9.05591e-015 -90 -90   XYZ
    dof ry
    limits (-180.0 0.0)
  end
  begin
     id 28
     name rhand
     direction -1 -4.4891e-011 -2.48094e-026   
     length 0.821049   
     axis 1.58305e-014 -90 -90   XYZ
    dof rx rz
    limits (-90.0 90.0)
           (-45.0 45.0)
  end
  begin
     id 29
     name rfingers
     direction -1 -4.48985e-011 -4.96187e-026   
     length 0.661951   
     axis 3.1661e-014 -90 -90   XYZ
    dof rx
    limits (0.0 90.0)
  end
  begin
     id 30
     name rthumb
     direction -0.707107 -6.34906e-011 0.707107   
     length 0.950433   
     axis -90 -45 -2.85299e-015   XYZ
    dof rx rz
    limits (-45.0 45.0)
           (-45.0 45.0)
  end
:hierarchy
  begin
    root lhipjoint rhipjoint lowerback
    lhipjoint lfemur
    lfemur ltibia
    ltibia lfoot
    lfoot ltoes
    rhipjoint rfemur
    rfemur rtibia
    rtibia rfoot
    rfoot rtoes
    lowerback upperback
    upperback thorax
    thorax lowerneck lclavicle rclavicle
    lowerneck upperneck
    upperneck head
    lclavicle lhumerus
    lhumerus lradius
    lradius lwrist
    lwrist lhand lthumb
    lhand lfingers
    rclavicle rhumerus
    rhumerus rradius
    rradius rwrist
    rwrist rhand rthumb
    rhand rfingers
  end

#!OML:ASF F:\VICON\USERDATA\INSTALL\rory3\rory3.ASF
:FULLY-SPECIFIED
:DEGREES
1367
root 1.99497 17.598 -0.38435 -335.061 72.9936 -338.327
lowerback 17.8955 -4.03246 5.54357
upperback 8.98349 -3.70376 4.21428
thorax -0.426326 -1.52048 1.99833
lowerneck 4.44143 -1.53376 1.45006
upperneck -14.8161 -2.6795 -6.1063
head -5.28162 -0.928331 -1.99183
rclavicle -4.77083e-015 -1.11319e-014
rhumerus 4.40672 1.34598 -63.5298
rradius 47.9768
rwrist -45.7515
rhand -19.3289 -14.1911
rfingers 7.12502
rthumb 6.98771 -44.0558
lclavicle -4.77083e-015 -1.11319e-014
lhumerus 2.19739 -23.7834 94.1115
lradius 25.8391
lwrist 65.5245
lhand -18.9145 22.3986
lfingers 7.12502
lthumb 7.38765 52.2496
rfemur -20.27 11.261 8.18393
rtibia 30.1556
rfoot -15.7558 1.04115
rtoes -4.0199
lfemur -8.42567 11.604 -26.63
ltibia 14.9149
lfoot -12.3115 5.29085
ltoes -2.71435
1368
root 1.99394 17.5952 -0.3678 -335.052 73.4598 -338.196
lowerback 17.8918 -3.94781 5.5239
upperback 8.92589 -3.59878 4.15764
thorax -0.48936 -1.47016 1.93096
lowerneck 4.33662 -1.36647 1.49305
upperneck -14.5495 -2.45885 -6.30702
head -5.17478 -0.816016 -2.07414
rclavicle -6.36111e-015 2.8625e-014
rhumerus 3.35306 1.34402 -64.147
rradius 48.0567
rwrist -45.671
rhand -19.4896 -14.181
rfingers 7.12502
rthumb 6.83252 -44.0508
lclavicle -6.36111e-015 2.8625e-014
lhumerus 1.12305 -23.2282 94.3957
lradius 25.3783
lwrist 64.5074
lhand -18.7865 22.1134
lfingers 7.12502
lthumb 7.51124 51.9601
rfemur -19.9803 11.0629 8.46521
rtibia 30.1359
rfoot -15.9168 0.832013
rtoes -4.21338
lfemur -8.32371 11.325 -26.3729
ltibia 14.9884
lfoot -12.2827 5.14574
ltoes -2.73698
1369
root 1.99547 17.5925 -0.350177 -334.971 73.9463 -338.012
lowerback 17.792 -3.87223 5.46358
upperback 8.90877 -3.52072 4.12764
thorax -0.455366 -1.43281 1.9129
lowerneck 4.1801 -1.17874 1.49444
upperneck -14.3066 -2.21237 -6.5009
head -5.0645 -0.689319 -2.14859
rclavicle 4.29375e-014 -6.36111e-015
rhumerus 2.40535 1.33089 -64.7385
rradius 48.1164
rwrist -45.6142
rhand -19.5735 -14.0011
rfingers 7.12502
rthumb 6.75152 -43.8735
lclavicle 4.29375e-014 -6.36111e-015
lhumerus 0.0878474 -22.6343 94.6473
lradius 25.1258
lwrist 63.9207
lhand -19.1075 21.8639
lfingers 7.12502
lthumb 7.20141 51.7213
rfemur -19.6659 10.8561 8.73861
rtibia 30.079
rfoot -16.0487 0.628472
rtoes -4.44488
lfemur -8.26451 11.0202 -26.1228
ltibia 15.1194
lfoot -12.2608 4.99378
ltoes -2.64725
1370
root 2.0008 17.5941 -0.333018 -334.994 74.3951 -337.929
lowerback 17.6896 -3.76068 5.376
upperback 8.88174 -3.39797 4.15422
thorax -0.425282 -1.37556 1.96214
lowerneck 4.03183 -1.03649 1.38748
upperneck -14.0501 -2.03592 -6.69044
head -4.95349 -0.591995 -2.19879
rclavicle 4.29375e-014 -1.43125e-014
rhumerus 1.525 1.25654 -65.2294
rradius 48.0505
rwrist -45.5173
rhand -19.481 -13.7329
rfingers 7.12502
rthumb 6.8408 -43.6024
lclavicle 4.29375e-014 -1.43125e-014
lhumerus -0.950644 -21.6973 95.0358
lradius 24.9359
lwrist 63.4017
lhand -19.4484 21.8769
lfingers 7.12502
lthumb 6.87232 51.7454
rfemur -19.3198 10.6528 9.00843
rtibia 30.0062
rfoot -16.2113 0.545664
rtoes -4.10352
lfemur -8.20096 10.7737 -25.8665
ltibia 15.2955
lfoot -12.2709 4.82127
ltoes -2.63754
1371
root 2.00723 17.5954 -0.317014 -335.226 74.9122 -338.08
lowerback 17.5977 -3.68005 5.36026
upperback 8.82431 -3.30062 4.21261
thorax -0.434997 -1.33016 2.01145
lowerneck 3.9426 -0.88977 1.22807
upperneck -13.8431 -1.85451 -6.84012
head -4.86706 -0.49028 -2.22775
rclavicle 7.95139e-015 1.59028e-014
rhumerus 0.679788 1.15121 -65.7384
rradius 47.9517
rwrist -45.2605
rhand -19.2633 -13.7412
rfingers 7.12502
rthumb 7.05103 -43.6037
lclavicle 7.95139e-015 1.59028e-014
lhumerus -1.94644 -20.4712 95.3943
lradius 24.6089
lwrist 62.7346
lhand -19.4758 21.7788
lfingers 7.12502
lthumb 6.84585 51.6481
rfemur -18.9927 10.3415 9.37291
rtibia 29.961
rfoot -16.3345 0.450516
rtoes -4.16867
lfemur -8.1334 10.5218 -25.5241
ltibia 15.4181
lfoot -12.2931 4.62288
ltoes -2.36045
1372
root 2.01161 17.5946 -0.301049 -335.048 75.4052 -337.799
lowerback 17.5027 -3.62104 5.33139
upperback 8.76866 -3.23981 4.15484
thorax -0.448292 -1.30189 1.95146
lowerneck 3.89993 -0.722228 1.22804
upperneck -13.6928 -1.64101 -7.04885
head -4.8058 -0.375537 -2.30329
rclavicle 2.94201e-014 -7.4743e-014
rhumerus -0.217488 1.03939 -66.3661
rradius 47.9583
rwrist -45.0395
rhand -19.2976 -14.0512
rfingers 7.12502
rthumb 7.01784 -43.9148
lclavicle 2.94201e-014 -7.4743e-014
lhumerus -2.94405 -19.5596 95.4985
lradius 24.3854
lwrist 62.2635
lhand -19.4883 21.6189
lfingers 7.12502
lthumb 6.83377 51.4886
rfemur -18.7062 10.01 9.60936
rtibia 29.9422
rfoot -16.4464 0.400193
rtoes -4.05225
lfemur -8.05809 10.2954 -25.3124
ltibia 15.4899
lfoot -12.257 4.42824
ltoes -2.34009
1373
root 2.0158 17.5929 -0.286443 -334.266 75.8133 -336.86
lowerback 17.4026 -3.52981 5.20158
upperback 8.74161 -3.15811 4.01119
thorax -0.428693 -1.2643 1.85216
lowerneck 3.85737 -0.588734 1.23737
upperneck -13.5819 -1.46647 -7.19148
head -4.75763 -0.283677 -2.35772
rclavicle 1.19271e-014 -1.74931e-014
rhumerus -1.133 0.843713 -67.0367
rradius 48.023
rwrist -44.9608
rhand -19.5478 -14.1848
rfingers 7.12502
rthumb 6.77638 -44.0563
lclavicle 1.19271e-014 -1.74931e-014
lhumerus -3.93938 -18.9215 95.5032
lradius 24.302
lwrist 62.0219
lhand -19.6707 21.4883
lfingers 7.12502
lthumb 6.65772 51.3636
rfemur -18.3976 9.61698 9.6511
rtibia 29.9229
rfoot -16.4918 0.368655
rtoes -4.22696
lfemur -7.957 10.1129 -25.3048
ltibia 15.6034
lfoot -12.1894 4.23816
ltoes -2.75976
1374
root 2.02058 17.593 -0.271416 -333.491 76.2633 -336.007
lowerback 17.191 -3.45118 5.12344
upperback 8.71548 -3.09594 3.86232
thorax -0.352953 -1.23464 1.71694
lowerneck 3.84352 -0.469371 1.28686
upperneck -13.5237 -1.30588 -7.29286
head -4.7308 -0.201601 -2.40551
rclavicle 1.59028e-014 -3.97569e-014
rhumerus -2.01636 0.618417 -67.769
rradius 47.9689
rwrist -44.8117
rhand -19.5479 -13.8614
rfingers 7.12502
rthumb 6.77628 -43.7329
lclavicle 1.59028e-014 -3.97569e-014
lhumerus -4.915 -18.2967 95.4492
lradius 24.214
lwrist 61.7566
lhand -19.9121 21.2146
lfingers 7.12502
lthumb 6.4247 51.0971
rfemur -18.1424 9.29925 9.72809
rtibia 29.9021
rfoot -16.6133 0.233311
rtoes -4.378
lfemur -7.92758 9.84925 -25.2449
ltibia 15.7117
lfoot -12.1914 4.03043
ltoes -2.66527
1375
root 2.02439 17.5908 -0.254112 -332.974 76.7282 -335.467
lowerback 16.9351 -3.35364 5.11314
upperback 8.68527 -3.00216 3.72945
thorax -0.25995 -1.18754 1.55399
lowerneck 3.79094 -0.364353 1.40953
upperneck -13.4454 -1.16566 -7.46419
head -4.69231 -0.130113 -2.48587
rclavicle -9.54166e-015 4.77083e-014
rhumerus -2.89604 0.327709 -68.4779
rradius 47.8326
rwrist -44.5392
rhand -19.2775 -13.541
rfingers 7.12502
rthumb 7.0373 -43.404
lclavicle -9.54166e-015 4.77083e-014
lhumerus -5.91672 -17.9918 95.3277
lradius 24.3005
lwrist 61.788
lhand -20.3074 21.1582
lfingers 7.12502
lthumb 6.04306 51.052
rfemur -17.9554 9.12588 9.88543
rtibia 29.8917
rfoot -16.8289 0.0566399
rtoes -4.46045
lfemur -7.9652 9.6107 -25.0922
ltibia 15.8023
lfoot -12.1472 3.85144
ltoes -2.44503
1376
root 2.02811 17.5871 -0.236832 -332.484 77.1879 -334.874
lowerback 16.8051 -3.25285 5.09371
upperback 8.65332 -2.89231 3.59183
thorax -0.233091 -1.13264 1.39512
lowerneck 3.635 -0.263683 1.51552
upperneck -13.2423 -1.02456 -7.62741
head -4.59753 -0.0633342 -2.55925
rclavicle 4.13472e-014 -2.22639e-014
rhumerus -3.79002 0.0887382 -69.1355
rradius 47.7666
rwrist -44.3443
rhand -19.3394 -13.4448
rfingers 7.12502
rthumb 6.97749 -43.3098
lclavicle 4.13472e-014 -2.22639e-014
lhumerus -6.90626 -17.5133 95.197
lradius 24.3838
lwrist 61.6183
lhand -20.6554 21.1106
lfingers 7.12502
lthumb 5.70706 51.0138
rfemur -17.6739 8.9623 10.0537
rtibia 29.8565
rfoot -17.0436 -0.103193
rtoes -4.45967
lfemur -7.91713 9.43226 -24.9322
ltibia 15.8931
lfoot -12.1115 3.61511
ltoes -2.64815
1377
root 2.03195 17.5859 -0.219381 -332.108 77.6327 -334.352
lowerback 16.774 -3.15223 5.08991
upperback 8.62414 -2.77056 3.44548
thorax -0.25487 -1.07107 1.22111
lowerneck 3.34884 -0.139119 1.49439
upperneck -12.9398 -0.833224 -7.60942
head -4.44729 0.0183742 -2.55577
rclavicle -6.36111e-015 1.43125e-014
rhumerus -4.63829 -0.265355 -69.8296
rradius 47.623
rwrist -43.9989
rhand -19.5796 -13.667
rfingers 7.12502
rthumb 6.74568 -43.5395
lclavicle -6.36111e-015 1.43125e-014
lhumerus -7.90756 -17.1487 95.0216
lradius 24.5112
lwrist 61.4928
lhand -21.0192 20.8182
lfingers 7.12502
lthumb 5.35578 50.7306
rfemur -17.3222 8.76396 10.2631
rtibia 29.7948
rfoot -17.2142 -0.318422
rtoes -5.03211
lfemur -7.81166 9.36531 -24.7391
ltibia 15.9937
lfoot -12.0263 3.27971
ltoes -3.25602
1378
root 2.03745 17.5868 -0.200916 -332.046 78.1077 -334.092
lowerback 16.7544 -3.07684 5.13465
upperback 8.61431 -2.67079 3.33662
thorax -0.261341 -1.01813 1.06364
lowerneck 3.12671 0.00714971 1.38957
upperneck -12.6825 -0.618896 -7.56781
head -4.32102 0.116679 -2.53219
rclavicle 4.13472e-014 -6.52014e-014
rhumerus -5.50943 -0.504116 -70.4862
rradius 47.6136
rwrist -43.824
rhand -19.9771 -14.1362
rfingers 7.12502
rthumb 6.36194 -44.0207
lclavicle 4.13472e-014 -6.52014e-014
lhumerus -8.87527 -16.7477 94.8489
lradius 24.5851
lwrist 61.4273
lhand -21.4332 20.4601
lfingers 7.12502
lthumb 4.95603 50.3822
rfemur -16.9054 8.57151 10.558
rtibia 29.7438
rfoot -17.4167 -0.532417
rtoes -5.54502
lfemur -7.5933 9.20722 -24.4544
ltibia 16.028
lfoot -11.9838 3.02769
ltoes -3.42431
1379
root 2.04544 17.5882 -0.184397 -331.678 78.6345 -333.614
lowerback 16.5672 -3.00307 5.08915
upperback 8.58822 -2.59955 3.30281
thorax -0.190941 -0.98395 1.03398
lowerneck 3.06389 0.122398 1.2848
upperneck -12.5758 -0.4672 -7.62979
head -4.27095 0.197254 -2.53957
rclavicle -3.97569e-015 3.18055e-014
rhumerus -6.28168 -0.732439 -71.0243
rradius 47.5496
rwrist -43.758
rhand -19.8993 -14.2903
rfingers 7.12502
rthumb 6.43706 -44.1725
lclavicle -3.97569e-015 3.18055e-014
lhumerus -9.77356 -16.1173 94.704
lradius 24.5806
lwrist 60.9318
lhand -21.536 20.0389
lfingers 7.12502
lthumb 4.85679 49.9633
rfemur -16.5634 8.28593 10.8103
rtibia 29.6936
rfoot -17.5686 -0.691733
rtoes -6.04799
lfemur -7.46266 8.8563 -24.2137
ltibia 16.0472
lfoot -11.9737 2.89056
ltoes -3.27155
1380
root 2.05371 17.5879 -0.167789 -330.5 79.1188 -332.357
lowerback 16.2874 -2.87283 4.79535
upperback 8.57784 -2.49668 3.32391
thorax -0.0433695 -0.942252 1.19192
lowerneck 3.03016 0.193599 1.13046
upperneck -12.552 -0.387654 -7.74315
head -4.25453 0.250925 -2.55232
rclavicle -5.56597e-014 3.81667e-014
rhumerus -6.92877 -0.998313 -71.4474
rradius 47.4114
rwrist -43.8364
rhand -19.7035 -14.1573
rfingers 7.12502
rthumb 6.6261 -44.0337
lclavicle -5.56597e-014 3.81667e-014
lhumerus -10.5914 -15.5515 94.6467
lradius 24.6255
lwrist 60.2942
lhand -21.5335 19.6624
lfingers 7.12502
lthumb 4.85926 49.5867
rfemur -16.2571 7.96882 10.8963
rtibia 29.6236
rfoot -17.7103 -0.830747
rtoes -5.88661
lfemur -7.40917 8.56755 -24.1349
ltibia 16.0839
lfoot -11.9089 2.65134
ltoes -3.13453
1381
root 2.06409 17.5859 -0.151159 -329.666 79.6167 -331.403
lowerback 16.0496 -2.74112 4.64848
upperback 8.56754 -2.36694 3.30834
thorax 0.0753487 -0.881958 1.22751
lowerneck 3.06131 0.251866 1.09797
upperneck -12.5537 -0.320447 -7.8585
head -4.25716 0.294259 -2.58587
rclavicle -3.57812e-014 9.06458e-014
rhumerus -7.64758 -1.30881 -71.9307
rradius 47.2902
rwrist -43.9304
rhand -19.5364 -13.8603
rfingers 7.12502
rthumb 6.78732 -43.7315
lclavicle -3.57812e-014 9.06458e-014
lhumerus -11.4164 -15.2767 94.5648
lradius 24.6312
lwrist 59.9293
lhand -21.706 19.2576
lfingers 7.12502
lthumb 4.69266 49.1856
rfemur -15.8839 7.67086 11.0788
rtibia 29.5372
rfoot -17.9087 -0.894329
rtoes -5.46432
lfemur -7.301 8.35242 -23.9674
ltibia 16.1476
lfoot -11.8763 2.40572
ltoes -3.62151
